<?xml version="1.0" standalone="no"?>
<!DOCTYPE svg PUBLIC "-//W3C//DTD SVG 20010904//EN"
 "http://www.w3.org/TR/2001/REC-SVG-20010904/DTD/svg10.dtd">
<svg version="1.0" xmlns="http://www.w3.org/2000/svg"
 width="1024.000000pt" height="1024.000000pt" viewBox="0 0 1024.000000 1024.000000"
 preserveAspectRatio="xMidYMid meet">
<metadata>
Created by potrace 1.14, written by Peter Selinger 2001-2017
</metadata>
<g transform="translate(0.000000,1024.000000) scale(0.100000,-0.100000)"
fill="#000000" stroke="none">
<path d="M5050 9808 c-16 -22 -30 -47 -30 -55 0 -15 -67 -83 -81 -83 -4 0 -14
-6 -21 -13 -7 -7 -29 -23 -48 -35 -33 -21 -33 -22 -7 -16 15 3 27 3 27 0 0
-12 -115 -131 -134 -139 -32 -13 -9 -20 25 -8 18 6 70 14 117 18 84 6 84 6 73
-15 -7 -12 -15 -22 -19 -22 -7 0 -39 -28 -162 -142 -34 -32 -68 -58 -74 -58
-7 0 -26 -14 -43 -31 -45 -43 -83 -162 -83 -258 l0 -73 -31 6 c-17 3 -67 6
-110 6 l-78 0 -3 38 -3 37 -52 3 c-95 5 -179 -17 -268 -72 -22 -14 -76 -43
-120 -65 -117 -58 -140 -84 -115 -131 7 -13 6 -19 -5 -24 -23 -8 -19 -39 4
-31 15 4 21 -1 30 -26 15 -43 14 -45 -9 -18 -10 13 -19 19 -20 13 0 -16 35
-45 44 -37 4 4 10 3 14 -3 8 -12 71 -43 151 -74 83 -32 229 -59 343 -63 94 -3
103 -5 112 -26 11 -25 -8 -45 -34 -35 -8 3 -47 9 -86 14 -77 10 -162 28 -284
61 -66 18 -79 18 -108 6 -30 -12 -31 -15 -17 -33 8 -10 15 -24 15 -29 0 -19
-100 -86 -182 -121 -159 -68 -230 -79 -715 -109 -215 -14 -246 -14 -285 0 -62
21 -92 19 -128 -11 l-31 -26 33 -17 c33 -16 33 -16 38 9 3 14 13 26 22 28 25
5 37 -64 15 -86 -15 -14 -14 -20 13 -69 16 -29 27 -53 25 -53 -3 0 3 -8 12
-18 10 -10 25 -29 33 -42 8 -13 26 -37 40 -54 14 -17 52 -67 85 -111 53 -71
116 -152 164 -210 9 -11 29 -42 44 -68 16 -26 49 -71 73 -98 25 -28 43 -54 40
-56 -3 -3 -88 46 -188 109 -208 131 -258 158 -290 158 -18 0 -15 -4 17 -21 87
-46 144 -107 150 -159 1 -8 10 -30 19 -49 10 -19 26 -57 36 -85 9 -28 21 -60
25 -70 6 -14 5 -17 -3 -12 -34 21 -2 -18 72 -89 l85 -80 10 -74 10 -73 -53
-72 c-30 -39 -105 -121 -167 -182 -110 -107 -226 -231 -241 -258 -22 -39 -108
-283 -108 -305 1 -35 43 66 71 171 20 72 60 147 118 218 30 37 26 19 -18 -69
-22 -42 -45 -106 -51 -141 -15 -85 -109 -279 -110 -228 0 8 -4 7 -10 -4 -7
-11 -7 -65 1 -160 13 -164 8 -353 -10 -385 -10 -20 -9 -23 8 -23 11 0 23 -5
26 -10 4 -7 -2 -9 -19 -4 -14 3 -26 4 -26 1 0 -6 143 -52 325 -106 120 -36
196 -64 223 -82 10 -8 43 -40 72 -72 71 -78 139 -117 206 -117 27 0 59 -6 69
-14 19 -14 19 -15 2 -34 -9 -10 -23 -42 -30 -71 -9 -40 -18 -56 -38 -67 -16
-8 -35 -34 -49 -66 -20 -46 -24 -73 -27 -213 -4 -177 10 -371 33 -455 9 -30
29 -86 46 -123 l31 -68 34 33 c42 41 42 32 -2 -36 -19 -30 -35 -57 -35 -60 0
-2 25 -18 55 -35 32 -18 70 -51 92 -80 21 -28 43 -50 49 -50 7 -1 24 16 39 37
69 93 150 162 191 162 25 0 84 -65 84 -93 0 -28 -79 -107 -107 -107 -14 0 -12
4 8 26 32 35 20 30 -79 -36 l-83 -54 23 -18 c35 -27 73 -31 110 -14 36 18 90
65 113 99 17 27 85 278 85 317 0 15 -17 57 -39 91 -21 35 -41 74 -45 87 -4 13
-23 50 -41 82 -18 32 -41 85 -50 117 -9 32 -19 65 -22 73 -13 35 -63 -282 -63
-401 0 -5 -5 -9 -11 -9 -18 0 -4 252 20 385 14 75 22 177 27 320 3 116 7 240
8 277 l3 67 -107 -102 c-120 -115 -170 -152 -232 -174 -24 -8 -58 -26 -77 -40
l-34 -26 19 31 c13 22 34 38 67 50 72 27 261 172 245 188 -4 3 -23 1 -44 -5
-30 -8 -61 -6 -162 15 -69 14 -137 31 -152 39 -21 11 -89 61 -139 102 -2 1 -2
5 1 8 2 3 38 -16 79 -41 89 -55 101 -61 202 -85 142 -34 194 -23 285 65 58 57
66 74 22 51 -51 -26 -70 -19 -167 66 -51 44 -93 85 -93 90 0 6 -10 19 -21 28
-15 12 -20 23 -15 38 4 11 64 74 134 139 179 166 231 209 236 192 3 -7 7 -52
11 -100 11 -154 57 -278 166 -448 73 -114 120 -152 156 -125 10 8 26 15 36 15
24 0 21 20 -3 20 -30 0 -109 40 -126 64 -56 80 -95 147 -92 157 2 6 21 -4 46
-24 23 -20 68 -45 98 -57 66 -24 85 -21 22 4 -55 23 -98 54 -98 71 0 8 -16 40
-36 71 -20 32 -46 82 -57 113 -27 75 -33 214 -14 308 18 84 74 206 112 247 28
28 28 29 17 91 -24 125 -12 249 28 305 l18 26 -51 34 c-29 19 -79 58 -112 85
-112 94 -263 204 -447 327 -161 107 -203 141 -348 282 -91 88 -169 166 -174
174 -19 33 124 -80 226 -177 116 -111 131 -123 333 -253 187 -120 324 -216
368 -257 20 -19 37 -30 37 -23 0 6 -32 84 -70 173 -39 89 -68 164 -66 167 3 2
21 -3 41 -12 26 -13 35 -23 35 -41 0 -15 6 -25 14 -25 8 0 17 -15 20 -35 4
-19 11 -35 15 -35 5 0 9 -11 9 -24 0 -13 9 -52 20 -87 12 -35 26 -83 32 -106
8 -34 19 -47 60 -73 28 -18 57 -41 64 -51 12 -18 18 -14 87 52 40 38 99 87
130 108 69 46 223 98 335 113 45 6 81 15 79 19 -3 3 -37 26 -77 49 -40 24 -87
56 -105 71 -18 15 -74 49 -126 74 -71 36 -105 47 -140 47 -26 0 -50 4 -53 10
-3 5 7 24 24 41 16 18 42 57 58 87 37 74 37 162 0 275 -24 71 -145 316 -201
405 -38 60 -105 193 -100 198 6 7 -1 17 101 -138 233 -355 309 -603 232 -759
-20 -42 -23 -54 -12 -58 8 -3 21 -2 30 1 9 3 57 -1 106 -9 50 -9 92 -14 94
-13 3 4 -56 162 -90 242 -23 56 -20 80 17 117 68 69 220 138 271 124 45 -13
96 -39 96 -49 0 -6 -23 -19 -50 -29 -76 -27 -112 -69 -141 -165 -24 -80 -24
-81 -44 -63 -44 41 -85 48 -65 12 6 -9 21 -47 35 -86 25 -67 91 -195 101 -195
2 0 -2 12 -9 28 -26 51 -68 182 -65 200 3 12 12 3 32 -31 32 -53 119 -255 145
-333 l16 -51 35 12 c40 13 49 29 109 180 66 168 74 207 72 335 0 63 -10 180
-22 260 -18 129 -25 154 -61 223 -99 190 -287 336 -595 462 -103 42 -176 95
-157 115 9 9 21 7 50 -9 22 -11 92 -45 158 -75 144 -68 214 -109 331 -197 104
-77 197 -173 229 -237 l23 -45 6 74 c4 41 10 142 13 224 4 83 11 153 16 156 6
4 5 58 -1 140 -12 147 -14 434 -4 517 l6 53 96 -7 c53 -4 156 -8 229 -8 88 -1
132 -5 132 -12 0 -7 -55 -13 -162 -18 -201 -8 -200 -7 -216 -134 -7 -48 -14
-148 -17 -222 -7 -174 -15 -291 -22 -310 -7 -19 -3 -531 4 -543 3 -5 20 27 39
70 52 120 116 206 258 349 192 192 308 261 456 273 l74 6 -84 44 c-47 24 -92
49 -100 56 -46 39 -156 73 -288 90 -53 7 -53 7 -94 -36 -50 -54 -158 -197
-158 -210 0 -13 -61 -72 -67 -65 -3 3 0 14 8 24 8 11 38 53 66 95 29 42 82
109 118 149 36 40 106 132 154 203 49 72 98 139 110 149 22 20 22 34 -4 91 -7
17 -21 48 -31 70 -21 49 -96 166 -118 184 -9 7 -16 19 -16 26 0 8 -4 15 -9 17
-11 4 -81 106 -81 119 0 17 51 21 122 8 40 -7 77 -12 81 -11 7 2 15 -4 50 -34
7 -5 20 -13 29 -16 13 -5 16 -2 12 15 -6 34 -124 141 -232 211 -53 34 -122 84
-151 109 -30 26 -75 57 -99 68 -33 17 -43 26 -39 40 5 20 -18 39 -47 39 -9 0
-29 -19 -46 -42z m-322 -864 c8 -14 22 -15 141 -4 92 9 136 9 143 2 26 -26 -6
-32 -159 -32 -124 0 -153 3 -145 13 8 10 2 12 -29 9 -36 -4 -49 5 -32 21 13
14 72 7 81 -9z m29 -393 c56 -26 187 -115 241 -165 25 -22 51 -41 60 -41 8 0
17 -6 19 -12 3 -7 -2 -13 -10 -13 -14 0 -61 29 -275 171 -42 28 -85 49 -100
49 -15 0 -38 3 -51 7 -23 6 -23 7 -5 14 33 13 77 9 121 -10z m-305 -72 c-35
-31 -52 -37 -52 -16 0 14 71 59 80 51 3 -3 -10 -19 -28 -35z m1232 -75 c4 -15
4 -29 1 -33 -4 -3 -41 -9 -83 -12 -42 -4 -120 -12 -172 -18 -160 -18 -181 -19
-177 -7 4 12 36 19 170 36 60 8 94 18 105 30 20 21 42 27 103 29 43 1 47 -1
53 -25z m-1673 -705 c85 -26 191 -107 248 -189 65 -92 48 -92 -41 1 -110 114
-186 153 -297 154 -82 0 -142 -23 -210 -81 -32 -27 -111 -169 -111 -200 0 -20
-24 -13 -28 10 -5 22 50 138 88 186 78 98 242 154 351 119z m969 -248 c0 -4
-5 -23 -11 -40 -13 -37 -29 -25 -29 22 0 20 5 27 20 27 11 0 20 -4 20 -9z
m-660 -62 c0 -5 -4 -9 -10 -9 -5 0 -10 7 -10 16 0 8 5 12 10 9 6 -3 10 -10 10
-16z m-538 -75 c91 -34 223 -157 291 -272 44 -74 57 -113 40 -111 -5 0 -35 39
-68 87 -33 47 -98 126 -145 175 -95 99 -111 106 -229 97 l-65 -5 51 -32 c28
-17 56 -41 62 -52 7 -12 10 -21 8 -21 -2 0 -37 25 -77 55 -40 30 -84 55 -97
55 -29 0 -30 23 -1 42 33 22 147 13 230 -18z m1174 -10 c-4 -9 -9 -15 -11 -12
-3 3 -3 13 1 22 4 9 9 15 11 12 3 -3 3 -13 -1 -22z m-445 -356 c39 -13 82 -39
75 -45 -2 -2 -27 5 -55 17 -31 14 -60 20 -75 16 -14 -3 -27 -2 -30 3 -14 23
31 28 85 9z m-173 -294 c-10 -10 -28 6 -28 24 0 15 1 15 17 -1 9 -9 14 -19 11
-23z m-820 -639 c83 -20 116 -38 182 -100 30 -29 67 -55 81 -58 34 -9 89 -60
89 -84 0 -10 -17 -29 -38 -43 -20 -14 -114 -101 -208 -195 -160 -160 -234
-218 -312 -247 -26 -10 -37 -9 -69 6 -64 30 -127 84 -211 180 -88 100 -117
124 -239 195 l-82 48 6 -46 c5 -46 -9 -101 -25 -101 -5 0 -12 51 -15 113 -2
61 -8 121 -13 132 -4 11 15 -3 42 -31 27 -29 74 -64 104 -79 63 -31 150 -103
229 -190 110 -119 168 -171 209 -184 85 -28 136 5 397 260 83 80 161 151 173
158 44 24 21 49 -63 66 -63 14 -228 92 -338 162 -38 24 -40 26 -22 39 24 18
45 17 123 -1z m-578 -715 c18 -12 2 -12 -25 0 -13 6 -15 9 -5 9 8 0 22 -4 30
-9z"/>
<path d="M4774 9575 c-18 -13 -18 -14 4 -8 12 3 25 9 28 14 8 14 -10 11 -32
-6z"/>
<path d="M4670 9420 c-9 -6 -10 -10 -3 -10 6 0 15 5 18 10 8 12 4 12 -15 0z"/>
<path d="M4471 9354 c-32 -50 -44 -87 -14 -44 9 14 20 27 23 30 12 9 32 52 26
57 -3 3 -19 -16 -35 -43z"/>
<path d="M4556 9365 c-27 -32 -56 -49 -41 -25 3 6 4 10 1 10 -11 0 -54 -96
-76 -168 -12 -39 -23 -72 -24 -72 -15 0 -66 24 -66 31 0 12 -98 11 -160 -2
-46 -10 -54 -16 -84 -62 -18 -29 -40 -58 -49 -66 -18 -14 -24 -36 -8 -26 5 3
12 1 16 -5 3 -5 0 -10 -7 -11 -29 -1 -51 -8 -61 -18 -8 -8 4 -9 39 -6 64 7 73
9 109 24 17 7 73 19 125 26 52 7 109 20 125 29 17 9 51 19 77 22 56 8 64 15
77 72 11 53 -5 53 -34 -1 -29 -53 -49 -49 -42 7 12 83 47 157 100 209 39 38
47 51 36 58 -20 12 -21 12 -53 -26z"/>
<path d="M5647 9323 c-4 -3 0 -17 7 -32 16 -31 86 -253 86 -272 0 -11 27 -14
128 -15 94 -2 141 -7 182 -20 55 -19 67 -41 20 -37 -14 1 -90 5 -170 9 l-146
7 -48 -34 c-28 -20 -92 -90 -156 -170 l-108 -137 90 -7 c49 -3 113 -13 141
-22 61 -17 231 -102 302 -150 54 -36 71 -39 142 -22 85 20 131 39 177 75 53
40 79 45 67 12 -10 -27 -123 -96 -170 -103 -20 -3 -64 -13 -98 -21 -34 -7 -90
-14 -125 -14 -98 0 -176 -17 -252 -54 -80 -38 -194 -119 -203 -143 -4 -9 -43
-53 -88 -97 -98 -98 -160 -184 -209 -291 -71 -154 -96 -460 -51 -627 8 -32 22
-83 30 -115 24 -93 35 -103 109 -103 48 0 65 -4 70 -15 4 -12 -5 -15 -48 -15
-35 0 -58 -5 -66 -15 -7 -8 -18 -15 -24 -15 -22 0 -106 91 -106 115 0 8 -4 15
-10 15 -5 0 -10 -6 -10 -12 0 -7 -24 -53 -54 -103 l-54 -90 126 -6 c70 -3 160
-12 200 -19 41 -7 78 -8 82 -4 5 5 56 103 114 218 58 115 112 217 121 226 9
10 15 28 13 40 -3 20 -6 19 -57 -17 -54 -39 -59 -45 -105 -146 -32 -71 -76
-141 -83 -133 -3 3 11 36 32 73 26 47 40 89 47 136 8 61 7 71 -11 101 -27 44
-107 117 -159 147 -23 13 -42 29 -42 35 0 7 16 19 36 29 117 55 373 -112 374
-245 0 -14 -14 -54 -31 -90 -37 -76 -48 -156 -21 -146 9 3 49 16 87 30 103 36
135 41 135 22 0 -9 -15 -19 -38 -26 -21 -5 -67 -29 -101 -52 -34 -24 -85 -57
-114 -74 -28 -17 -51 -36 -50 -42 2 -7 -4 -9 -14 -5 -11 4 -14 3 -9 -6 4 -6 4
-11 -1 -10 -22 4 -34 -4 -58 -38 -13 -21 -21 -40 -17 -44 4 -3 52 -16 107 -29
55 -12 127 -34 160 -47 120 -50 229 -148 306 -273 l35 -59 127 162 c135 174
256 300 432 450 135 115 286 229 293 222 9 -8 -130 -146 -333 -330 -172 -157
-226 -212 -324 -335 -25 -30 -75 -91 -112 -136 l-68 -80 19 -63 c11 -35 20
-73 20 -85 0 -13 28 -65 63 -117 51 -76 68 -113 91 -193 42 -149 44 -197 11
-281 -39 -98 -96 -193 -144 -240 -23 -21 -41 -34 -41 -29 0 6 13 23 29 38 16
15 32 37 35 49 3 12 -27 -12 -77 -61 -45 -45 -107 -99 -137 -121 -90 -65 -110
-82 -110 -94 0 -8 3 -9 8 -1 10 15 50 24 55 11 1 -5 47 16 102 48 54 32 109
59 122 61 39 4 91 45 139 109 48 63 143 249 165 323 6 23 18 42 25 42 7 0 28
-21 47 -47 53 -75 236 -262 300 -310 73 -53 129 -71 160 -50 36 24 85 74 209
212 110 122 204 212 213 203 2 -2 -17 -26 -43 -53 -26 -28 -85 -93 -132 -145
-186 -210 -239 -256 -293 -252 -38 3 -111 43 -166 89 -36 31 -42 33 -32 14 8
-15 9 -26 3 -30 -5 -3 -42 -35 -82 -71 -92 -83 -143 -117 -194 -131 -38 -11
-39 -12 -18 -20 30 -11 175 -14 227 -4 55 11 193 62 233 87 48 29 43 -1 -7
-44 -70 -60 -228 -102 -378 -101 -51 1 -93 0 -93 -1 0 -2 39 -32 88 -68 48
-36 143 -93 212 -128 69 -34 134 -71 145 -82 25 -25 30 -27 -145 59 -80 39
-174 93 -209 120 -100 75 -101 76 -107 70 -15 -15 -14 -130 2 -216 32 -179 2
-405 -71 -536 -63 -113 -65 -228 -6 -335 l30 -54 19 44 c10 25 22 58 26 74 4
16 36 92 71 170 35 78 71 159 80 181 26 62 30 22 5 -48 -13 -34 -49 -114 -80
-177 -32 -63 -69 -152 -83 -198 l-25 -82 93 -92 c63 -62 91 -97 87 -107 -10
-29 193 172 216 213 13 23 38 57 57 76 26 28 36 52 50 115 10 44 17 91 16 105
-1 14 6 55 14 91 19 79 18 465 -1 477 -12 7 -44 150 -44 196 0 27 66 133 119
189 43 47 145 125 197 151 109 54 189 88 237 99 43 9 47 12 26 17 -18 5 -2 12
67 29 l92 23 -8 35 c-5 19 -5 112 0 206 4 93 4 197 0 231 -5 33 -7 78 -3 101
3 28 -3 73 -21 139 -32 122 -45 147 -46 89 0 -41 -16 -67 -25 -41 -11 31 -10
113 2 111 36 -7 -88 169 -221 316 -104 113 -132 163 -148 255 -27 164 43 319
236 518 99 103 206 138 421 138 77 0 158 -5 180 -10 52 -12 56 -6 8 18 -43 22
-165 42 -252 42 -208 0 -478 -100 -751 -278 -145 -94 -146 -94 -52 -7 46 43
102 105 124 139 87 128 187 253 234 291 27 22 54 44 59 50 6 6 37 31 70 55 33
24 77 56 97 72 20 15 42 28 47 28 6 0 11 4 11 10 0 16 33 -3 60 -34 70 -85 74
-81 10 13 -38 57 -76 125 -85 151 l-16 47 -82 17 c-196 42 -291 69 -447 130
-74 29 -169 63 -210 75 -191 55 -274 85 -321 117 -49 33 -53 34 -71 18 -12
-12 -22 -14 -29 -7 -6 6 0 22 21 48 16 21 30 44 30 52 0 32 65 163 81 163 14
0 89 76 89 90 0 3 -18 4 -40 2 -74 -7 -127 7 -195 53 -36 24 -63 39 -60 34 4
-5 -1 -6 -9 -3 -9 3 -14 10 -11 14 3 5 0 12 -6 16 -8 4 -9 3 -5 -4 10 -16 1
-15 -33 3 -29 15 -45 40 -36 56 4 5 -2 6 -11 2 -11 -4 -15 -2 -11 4 4 6 -22
38 -58 72 l-64 62 -53 -7 c-29 -4 -86 -12 -125 -19 -70 -12 -73 -11 -87 10 -8
12 -26 58 -39 101 -14 43 -26 73 -26 67 -1 -16 -21 -17 -21 -2 0 16 -36 59
-43 52z m633 -485 c0 -6 -6 -5 -15 2 -8 7 -15 14 -15 16 0 2 7 1 15 -2 8 -4
15 -11 15 -16z m98 -5 c29 -19 65 -53 57 -53 -9 0 -49 24 -78 48 -34 26 -18
30 21 5z m142 -70 c0 -16 -46 3 -54 22 -3 10 2 10 25 2 16 -6 29 -17 29 -24z
m30 33 c0 -11 -19 -15 -25 -6 -3 5 1 10 9 10 9 0 16 -2 16 -4z m-195 -26 c10
-11 14 -20 8 -20 -5 0 -18 9 -28 20 -10 11 -14 20 -8 20 5 0 18 -9 28 -20z
m65 -30 c0 -5 -6 -10 -14 -10 -8 0 -18 5 -21 10 -3 6 3 10 14 10 12 0 21 -4
21 -10z m-18 -436 c-68 -122 -89 -158 -239 -399 -186 -300 -249 -411 -290
-512 -43 -106 -52 -182 -29 -237 9 -21 16 -46 16 -54 0 -34 -28 13 -54 90 -44
130 -29 301 39 443 48 100 72 125 30 32 -19 -43 -38 -97 -41 -120 -3 -23 -12
-64 -20 -91 -8 -27 -14 -68 -13 -90 0 -47 -2 -50 53 87 35 90 116 229 214 371
107 154 249 372 301 461 58 98 72 118 78 111 2 -2 -18 -44 -45 -92z m-172
-109 c-17 -25 -33 -45 -36 -45 -3 0 9 20 26 45 17 25 33 45 36 45 3 0 -9 -20
-26 -45z m233 -528 c58 -29 85 -50 131 -104 53 -64 125 -187 114 -198 -2 -3
-25 28 -51 68 -120 189 -291 272 -460 223 -80 -23 -119 -62 -174 -172 -25 -52
-48 -92 -50 -90 -8 8 19 90 53 162 56 121 119 156 266 151 88 -4 105 -8 171
-40z m212 -337 c25 -21 18 -34 -50 -84 -101 -74 -205 -227 -281 -414 -19 -48
-39 -96 -44 -107 -5 -11 -11 -29 -13 -40 -3 -11 -6 7 -7 40 -1 33 -4 78 -5 99
-2 22 0 48 5 57 7 12 5 21 -7 30 -14 12 -15 11 -8 -11 7 -23 6 -24 -9 -11 -9
8 -15 20 -12 28 4 11 1 11 -14 3 -16 -9 -18 -8 -14 5 4 8 9 15 13 15 4 0 13
12 20 26 10 22 14 24 27 13 8 -7 14 -8 13 -3 -2 5 1 20 6 34 l9 25 6 -24 c7
-31 30 -40 30 -12 0 25 19 38 31 20 7 -11 9 -11 9 -1 0 7 4 11 8 8 5 -3 27 23
49 57 34 52 114 134 196 203 32 27 9 37 -67 30 -104 -10 -256 -88 -256 -132 0
-8 -12 -33 -26 -56 -14 -23 -43 -75 -63 -117 -41 -83 -121 -211 -121 -193 0
16 41 122 79 204 17 37 30 71 29 75 -8 28 98 154 160 190 82 48 140 64 219 60
40 -2 79 -10 88 -17z m-689 -371 c12 -20 -16 -26 -149 -32 -73 -3 -141 -8
-152 -13 -11 -4 -17 -4 -13 1 12 13 137 34 200 35 31 0 60 5 63 10 8 13 42 13
51 -1z m10 -298 c-10 -11 -19 -28 -20 -38 -2 -13 -10 -17 -27 -15 -13 2 -26 6
-28 8 -9 9 54 64 72 64 19 0 19 -1 3 -19z m864 -590 c0 -12 -21 -27 -50 -36
-14 -4 -36 -18 -50 -30 -147 -133 -296 -225 -362 -225 -23 0 -28 4 -28 25 0
21 12 31 78 65 42 22 142 78 222 124 132 77 190 101 190 77z m-259 -443 c183
-196 283 -294 306 -300 21 -6 60 9 103 38 17 12 12 4 -12 -21 -48 -50 -88 -52
-144 -8 -54 43 -404 401 -404 413 0 29 39 -3 151 -122z"/>
<path d="M3920 8899 c-74 -54 -84 -65 -29 -35 25 14 56 37 69 51 31 33 25 31
-40 -16z"/>
<path d="M4005 8919 c-4 -6 -5 -12 -2 -15 2 -3 7 2 10 11 7 17 1 20 -8 4z"/>
<path d="M3634 8888 c1 -7 20 -23 42 -35 21 -12 53 -30 69 -39 29 -16 29 -16
15 1 -8 10 -38 28 -66 41 -29 13 -54 28 -57 34 -3 6 -4 5 -3 -2z"/>
<path d="M3697 8750 c3 -11 7 -20 9 -20 2 0 4 9 4 20 0 11 -4 20 -9 20 -5 0
-7 -9 -4 -20z"/>
<path d="M3775 8707 c-4 -10 -5 -21 -1 -24 10 -10 18 4 13 24 -4 17 -4 17 -12
0z"/>
<path d="M3900 8490 c6 -11 20 -20 30 -20 30 0 24 17 -10 29 -28 9 -29 9 -20
-9z"/>
<path d="M3870 8384 c-19 -20 -57 -48 -85 -65 -27 -16 -47 -29 -43 -29 31 0
178 96 178 116 0 21 -12 16 -50 -22z"/>
<path d="M3258 8203 c7 -3 16 -2 19 1 4 3 -2 6 -13 5 -11 0 -14 -3 -6 -6z"/>
<path d="M2865 8180 l-40 -7 40 -1 c22 0 51 4 65 8 l25 8 -25 0 c-14 -1 -43
-4 -65 -8z"/>
<path d="M7498 8153 c7 -3 16 -2 19 1 4 3 -2 6 -13 5 -11 0 -14 -3 -6 -6z"/>
<path d="M7830 7707 c0 -2 15 -16 33 -33 l32 -29 -29 33 c-28 30 -36 37 -36
29z"/>
<path d="M2286 7591 l-39 -31 134 1 c146 2 260 -12 345 -41 30 -11 52 -15 49
-10 -3 5 -24 15 -46 21 -27 9 -36 15 -27 21 14 8 13 9 -17 13 -11 2 -49 12
-85 24 -39 12 -108 23 -170 27 l-105 6 -39 -31z"/>
<path d="M4953 6733 c-51 -6 -110 -17 -133 -23 -37 -10 -39 -12 -25 -27 14
-13 14 -18 2 -32 -7 -9 -22 -33 -32 -54 -11 -21 -38 -60 -60 -87 -118 -143
-151 -186 -189 -247 -81 -133 -81 -132 -79 -291 2 -154 -4 -166 -42 -82 -10
22 -21 40 -25 40 -13 0 78 -211 126 -295 70 -120 152 -224 203 -256 53 -34 64
-35 99 -10 39 27 66 33 95 22 22 -9 34 -5 78 24 72 49 146 68 235 63 44 -3 83
-12 98 -21 41 -27 40 -20 -5 36 -75 92 -133 147 -178 170 -55 27 -124 87 -142
124 -8 15 -26 46 -39 68 -14 21 -25 45 -26 53 -1 7 -8 20 -15 29 -19 22 -114
85 -176 116 -90 46 -86 74 4 35 83 -37 109 -41 143 -23 17 9 30 12 30 8 0 -4
5 -2 12 5 7 7 33 12 58 12 118 0 258 -133 299 -285 10 -37 19 -98 25 -170 1
-16 19 -53 38 -82 20 -28 46 -82 59 -118 19 -53 34 -75 71 -106 l46 -39 66 79
c73 88 117 169 167 311 33 92 34 100 34 245 -1 137 -3 157 -28 229 -42 119
-91 183 -189 242 -125 76 -260 107 -468 106 -231 0 -330 -33 -385 -126 -29
-50 -57 -183 -48 -228 4 -20 1 -29 -11 -34 -9 -3 -16 -12 -16 -19 0 -7 -11
-37 -24 -66 -37 -81 -47 -183 -31 -314 7 -60 16 -121 20 -135 3 -14 -5 -5 -19
20 -55 102 -61 340 -11 446 20 42 30 84 35 146 10 106 51 203 111 260 43 41
121 70 244 89 86 13 75 13 225 0 199 -17 381 -69 462 -131 126 -97 253 -318
235 -408 -21 -102 -46 -192 -61 -220 -20 -39 -15 -55 7 -20 8 12 36 57 63 98
68 106 117 223 122 292 4 54 1 63 -38 128 -23 39 -46 72 -50 75 -9 6 13 -60
34 -100 21 -40 20 -48 -4 -28 -11 10 -20 23 -20 30 0 19 -21 27 -32 12 -8 -12
-9 -11 -6 1 4 14 -56 55 -70 47 -12 -7 -149 80 -206 130 -17 15 -49 41 -71 58
-22 16 -44 34 -50 41 -22 26 -115 83 -159 98 -45 15 -58 21 -103 44 -13 7 -36
12 -51 12 -17 0 -40 10 -56 25 -30 28 -31 28 -173 8z"/>
<path d="M4233 5833 c9 -36 7 -44 -31 -113 -50 -91 -65 -169 -51 -265 5 -36
15 -80 23 -98 33 -79 256 -253 399 -310 98 -39 342 -86 457 -87 263 -3 328 4
478 51 113 36 293 123 408 197 76 49 182 148 216 202 27 43 30 120 8 185 -17
49 -68 149 -92 180 -4 6 -19 24 -33 41 -13 17 -22 34 -18 38 3 3 1 6 -5 6 -6
0 -52 -43 -104 -95 -78 -81 -102 -113 -150 -206 -83 -160 -203 -340 -223 -333
-8 3 -15 11 -15 18 0 6 -43 44 -95 83 -139 106 -216 116 -358 48 -104 -49
-188 -150 -173 -209 7 -29 54 -76 75 -76 10 0 7 5 -9 13 -14 7 -26 20 -28 30
-3 16 5 18 80 16 61 -2 98 2 135 16 l52 19 51 -32 c28 -18 54 -32 58 -32 4 0
20 -12 36 -26 28 -25 29 -27 13 -52 -14 -25 -22 -27 -86 -30 -100 -4 -292 23
-341 48 -23 11 -49 35 -60 52 -38 62 -34 120 14 231 19 43 18 43 -50 -5 -39
-28 -44 -29 -84 -18 -52 14 -118 77 -208 200 -96 130 -120 159 -213 259 -84
89 -86 91 -76 54z"/>
<path d="M7468 5373 c7 -3 16 -2 19 1 4 3 -2 6 -13 5 -11 0 -14 -3 -6 -6z"/>
<path d="M5905 5036 c-59 -14 -354 -114 -391 -133 -41 -21 -184 -53 -284 -63
-107 -10 -259 1 -352 27 -11 2 -18 -1 -18 -9 0 -7 19 -19 43 -26 109 -34 168
-113 172 -232 1 -36 -1 -69 -5 -75 -4 -5 -13 -48 -20 -95 -7 -47 -16 -107 -21
-135 -4 -27 -11 -167 -14 -310 -7 -294 -8 -297 -86 -327 -24 -9 -98 -33 -164
-53 -98 -29 -138 -36 -223 -38 -74 -1 -101 -5 -98 -14 3 -6 36 -54 74 -105
115 -156 237 -241 392 -274 167 -36 464 4 584 77 103 64 189 152 254 261 34
56 59 104 57 107 -3 2 -30 -3 -62 -12 -89 -24 -190 -30 -290 -17 l-91 11 -100
-40 c-55 -22 -137 -49 -181 -61 -97 -25 -325 -70 -329 -65 -9 9 47 27 135 46
137 28 236 56 319 90 62 26 77 37 108 82 19 29 64 90 99 136 112 146 239 396
277 544 15 62 17 86 8 161 -11 108 -4 123 12 26 24 -143 -16 -301 -136 -529
-70 -133 -128 -222 -201 -303 -24 -28 -43 -52 -40 -54 5 -6 185 55 254 86 112
51 194 108 408 286 105 87 245 236 300 316 41 61 60 149 59 273 -2 230 -81
401 -201 435 -64 18 -183 21 -248 6z m-296 -231 c32 -57 76 -164 69 -170 -2
-2 -26 48 -55 111 -28 63 -50 114 -48 114 2 0 17 -25 34 -55z m-162 -23 c48
-70 65 -125 88 -271 22 -138 17 -204 -30 -361 -9 -30 -19 -64 -22 -75 -4 -11
-9 -22 -12 -25 -3 -3 -14 -21 -24 -40 -48 -96 -115 -62 -133 67 -10 73 -51
211 -84 278 -16 33 -31 67 -34 75 -3 8 -10 22 -15 30 -38 65 -50 99 -39 103 8
3 6 6 -4 6 -11 1 -19 10 -19 24 -1 12 -3 37 -5 55 -2 25 6 42 34 76 21 24 52
53 69 66 31 21 157 61 178 56 6 -1 29 -30 52 -64z m653 -323 c13 -24 8 -34
-15 -26 -16 7 -21 47 -5 47 5 0 14 -9 20 -21z"/>
<path d="M4340 5030 c-160 -30 -297 -118 -376 -241 -43 -66 -104 -227 -104
-274 0 -38 96 -216 154 -286 69 -84 238 -237 357 -322 190 -136 468 -252 546
-226 41 13 63 44 63 87 0 18 -39 149 -86 292 l-87 259 -41 8 c-35 7 -43 14
-53 43 -7 22 -10 59 -6 100 4 36 7 73 7 83 0 9 4 17 8 17 4 0 8 7 8 16 0 8 7
22 15 31 8 8 13 19 10 24 -4 5 -2 9 4 9 5 0 11 -6 13 -12 3 -7 10 34 18 92 20
165 25 148 -55 174 -38 13 -115 47 -170 75 -106 55 -150 65 -225 51z m54 -102
c-68 -46 -114 -110 -114 -158 0 -21 4 -50 9 -63 5 -13 12 -64 16 -113 18 -254
73 -425 160 -496 42 -35 121 -89 179 -122 60 -35 188 -127 183 -132 -2 -2 -40
20 -85 49 -44 28 -109 70 -144 91 -92 58 -131 90 -238 196 -100 100 -145 169
-174 269 -53 180 34 419 176 490 68 33 88 26 32 -11z"/>
<path d="M3352 4535 c0 -16 2 -22 5 -12 2 9 2 23 0 30 -3 6 -5 -1 -5 -18z"/>
<path d="M3342 3967 c-30 -32 -27 -87 5 -87 8 0 11 4 8 10 -3 6 1 7 9 4 22 -9
41 43 27 73 -13 29 -22 29 -49 0z"/>
<path d="M4046 3803 c-20 -65 -36 -126 -36 -135 0 -21 20 -24 38 -6 9 9 12 8
13 -7 1 -11 1 -24 0 -29 -1 -5 4 -4 11 2 11 8 17 6 26 -9 7 -10 18 -19 26 -19
20 0 120 -98 150 -147 52 -85 114 -294 166 -563 16 -81 59 -218 86 -276 43
-91 191 -209 366 -293 128 -60 135 -63 225 -62 82 0 84 0 205 63 95 49 139 79
200 137 43 40 78 79 78 87 0 7 11 25 24 41 69 83 186 314 202 401 3 13 11 42
18 65 8 23 17 58 21 77 4 19 17 69 30 110 49 164 67 240 68 289 0 46 -5 65
-33 121 -19 38 -45 14 -127 -115 -180 -286 -304 -368 -600 -399 -294 -31 -476
25 -639 196 -46 48 -184 230 -288 381 -38 55 -85 111 -107 125 -21 15 -38 30
-39 35 0 7 -37 47 -43 47 -2 0 -20 -53 -41 -117z"/>
<path d="M6821 3864 c-38 -32 -31 -51 10 -27 28 17 30 16 62 -2 l32 -19 -16
24 c-8 13 -25 30 -36 37 -18 12 -24 11 -52 -13z"/>
<path d="M6282 3658 c-7 -26 -12 -49 -12 -51 0 -3 17 -7 38 -9 20 -3 46 -9 57
-13 11 -5 4 5 -16 23 -20 17 -40 46 -45 64 l-10 33 -12 -47z"/>
<path d="M6256 3544 c-4 -14 -5 -28 -3 -31 3 -2 8 8 11 23 4 14 5 28 3 31 -3
2 -8 -8 -11 -23z"/>
<path d="M6127 3219 c-52 -118 -62 -160 -36 -144 5 4 9 13 9 22 0 21 75 179
89 187 6 4 27 -5 47 -20 l35 -27 -20 34 c-12 20 -31 45 -44 57 l-24 22 -56
-131z"/>
<path d="M4024 3201 c-37 -66 -117 -187 -164 -246 -69 -88 -69 -92 1 -44 85
59 162 136 155 154 -3 8 -1 15 5 15 6 0 8 4 4 10 -9 14 6 61 19 57 6 -2 11
-17 11 -33 1 -18 7 -30 17 -32 27 -5 30 14 10 60 -11 24 -24 54 -29 68 l-11
25 -18 -34z"/>
<path d="M6270 3221 c0 -6 4 -13 10 -16 6 -3 7 1 4 9 -7 18 -14 21 -14 7z"/>
<path d="M6295 3148 c3 -33 0 -48 -8 -48 -8 0 -8 -3 -2 -8 13 -8 17 -52 6 -52
-4 0 -13 6 -20 13 -10 10 -11 8 -5 -6 3 -10 3 -17 -2 -16 -5 1 -24 -2 -42 -6
l-32 -8 57 -30 c32 -16 81 -46 108 -65 28 -20 84 -60 127 -88 l76 -53 -101
154 c-56 84 -116 178 -134 207 l-32 53 4 -47z"/>
<path d="M4836 2283 c16 -90 91 -242 164 -333 29 -36 56 -73 62 -83 5 -10 16
-16 23 -13 8 3 16 0 18 -7 8 -21 76 54 118 131 22 40 47 76 54 79 8 3 12 9 9
14 -3 5 -1 9 4 9 6 0 13 7 16 16 5 14 4 15 -9 4 -14 -12 67 171 89 199 12 17
17 18 -84 -25 -58 -25 -76 -28 -175 -28 -111 0 -136 6 -258 58 l-38 17 7 -38z"/>
<path d="M5247 1995 c-15 -30 -25 -55 -22 -55 7 0 57 101 53 106 -2 2 -16 -21
-31 -51z"/>
<path d="M4943 1921 c-12 -13 -26 -20 -32 -16 -6 3 -11 2 -11 -2 0 -5 -21 -31
-48 -59 -62 -65 -122 -140 -122 -153 0 -6 14 -11 32 -11 26 0 45 14 115 85 56
57 83 91 79 101 -3 9 -1 24 5 35 17 32 5 45 -18 20z"/>
<path d="M5171 1851 c-22 -29 -41 -62 -41 -74 0 -21 -1 -20 -16 3 -22 33 -44
50 -63 50 -13 -1 -13 -3 3 -15 17 -13 16 -17 -33 -64 -94 -92 -124 -92 -41 -1
39 43 50 61 48 84 -4 35 -24 45 -33 16 -11 -34 -107 -131 -258 -260 -79 -67
-151 -134 -160 -149 -14 -24 -43 -46 -162 -119 -11 -7 -36 -20 -55 -30 -19 -9
-37 -19 -40 -22 -3 -3 -23 -15 -45 -26 -22 -12 -73 -40 -112 -62 -40 -22 -86
-43 -103 -47 -16 -4 -32 -11 -35 -16 -4 -5 -15 -9 -26 -9 -10 0 -19 -4 -19 -9
0 -5 -9 -13 -20 -16 -11 -4 -39 -19 -61 -33 -23 -15 -51 -25 -64 -24 -22 3
-23 1 -15 -28 19 -66 180 -325 289 -465 26 -33 76 -100 111 -150 36 -49 95
-127 132 -173 38 -46 68 -92 68 -103 0 -10 4 -19 8 -19 5 0 23 -20 42 -45 l34
-45 542 0 542 0 137 132 c131 127 174 179 382 463 124 168 343 514 343 541 0
5 -16 -14 -35 -43 -51 -75 -76 -92 -125 -83 -22 4 -40 5 -40 2 0 -3 -7 3 -15
14 -9 12 -14 14 -15 6 0 -10 -4 -9 -16 3 -14 13 -19 14 -25 3 -7 -10 -9 -10
-9 0 0 6 -9 12 -20 12 -11 0 -23 7 -26 15 -4 8 -10 15 -16 15 -5 0 -6 -5 -2
-11 6 -10 -50 25 -66 41 -12 12 -51 30 -65 30 -23 0 -72 37 -127 95 -143 151
-218 225 -227 225 -6 0 -11 4 -11 8 0 5 -21 30 -48 58 -155 161 -253 266 -298
318 l-51 59 -42 -52z m22 -197 c26 -30 47 -57 47 -60 0 -3 -18 5 -41 18 -49
27 -77 64 -85 110 l-5 33 18 -23 c10 -13 39 -48 66 -78z m-136 -60 c2 -7 -18
-14 -53 -19 -51 -6 -55 -8 -49 -28 18 -58 18 -66 -2 -61 -15 4 -63 86 -63 107
0 18 161 18 167 1z m196 -55 c37 -6 67 -16 67 -21 0 -6 -7 -7 -16 -4 -9 4 -63
9 -120 13 -104 6 -136 19 -66 26 20 2 44 2 52 1 8 -2 45 -8 83 -15z m187 -19
c11 -7 2 -10 -32 -10 -27 0 -48 5 -48 10 0 13 60 13 80 0z"/>
<path d="M5795 1438 c59 -31 163 -58 225 -58 33 0 50 4 42 9 -10 6 -5 11 17
21 17 6 36 19 42 26 10 12 4 14 -42 8 -68 -8 -71 -8 -163 5 -43 6 -96 11 -119
11 l-42 -1 40 -21z"/>
</g>
</svg>
